<svg width="1440" height="2482" viewBox="0 0 1440 2482" fill="none" xmlns="http://www.w3.org/2000/svg">
<path d="M1586.74 725.826C1641.61 690.165 1721.16 624.328 1734.88 514.6L1707.44 511.857C1690.99 651.76 1545.6 720.34 1526.39 728.57H1490.73C1509.93 695.651 1622.41 503.628 1518.16 399.386C1419.41 300.631 1427.64 638.044 1430.38 736.799C1342.6 753.258 1271.28 797.149 1210.93 868.472C1150.58 942.539 1109.43 1041.29 1082 1156.51C1071.02 1101.64 1040.85 1016.61 966.782 1005.63C865.284 989.173 1040.85 1203.14 1065.54 1233.32C1040.85 1375.96 1035.36 1537.81 1040.85 1694.17C991.47 1595.42 933.863 1496.66 862.54 1403.4C837.852 1288.18 824.136 1170.22 832.365 1052.27C851.568 766.974 983.241 520.087 1221.9 314.347C1375.52 292.401 1455.07 218.335 1477.02 157.985C1490.73 122.323 1485.25 86.6619 1463.3 61.9731C1463.3 61.9731 1460.56 61.9731 1460.56 59.2299C1466.04 59.2299 1471.53 56.4867 1474.27 56.4867C1479.76 53.7435 1482.5 48.2571 1482.5 42.7707C1482.5 31.798 1474.27 23.5684 1452.33 12.5956C1438.61 7.10921 1411.18 -9.34996 1400.21 7.10921C1394.72 15.3388 1397.46 23.5684 1402.95 31.798C1378.26 26.3116 1342.6 29.0548 1295.97 42.7707C1210.93 67.4595 1161.55 105.864 1145.09 155.242C1125.89 221.078 1172.52 284.172 1188.98 303.374C953.066 511.857 821.392 761.488 802.19 1049.52C796.704 1153.76 804.933 1255.26 821.392 1354.02C796.704 1326.59 772.015 1296.41 747.326 1268.98C772.015 1203.14 843.338 989.173 761.042 1035.81C689.719 1074.21 695.205 1172.97 703.435 1225.09C604.68 1131.82 489.466 1052.27 355.049 1000.15C355.049 912.364 346.82 555.748 250.808 662.733C160.282 761.488 250.808 923.336 286.469 978.2C239.835 964.484 193.201 953.512 143.823 945.282C-100.321 906.877 -259.427 827.325 -328.006 706.624C-349.952 668.219 -360.925 627.071 -363.668 594.153C-344.466 517.344 -264.913 393.9 -352.695 432.304C-459.68 478.939 -410.302 522.83 -410.302 522.83C-410.302 522.83 -437.734 561.235 -484.368 462.48C-531.003 363.725 -577.637 569.464 -478.882 588.667C-382.87 607.869 -621.528 553.005 -599.583 640.787C-574.894 728.57 -434.991 599.639 -426.761 651.76C-421.275 690.165 -369.154 720.34 -341.722 734.056C-264.913 854.756 -103.064 934.309 141.08 972.714C176.741 978.2 209.66 986.43 242.578 994.659C160.282 994.659 14.893 1002.89 39.5817 1074.21C69.7569 1164.74 291.956 1055.01 344.076 1027.58C478.493 1079.7 593.707 1159.25 692.462 1252.52C645.828 1233.32 533.357 1194.91 530.614 1252.52C527.87 1315.61 686.976 1296.41 730.867 1288.18C769.272 1326.59 802.19 1367.73 835.108 1411.63C881.743 1617.36 969.525 1809.39 1060.05 1968.49C1090.23 2242.81 1139.6 2459.53 1142.35 2481.47L1169.78 2475.98C1169.78 2470.5 1125.89 2281.22 1095.71 2031.59C1128.63 2086.45 1161.55 2138.57 1194.47 2182.46C1241.1 2349.8 1257.56 2467.76 1257.56 2473.24L1284.99 2470.5C1284.99 2467.76 1271.28 2379.97 1238.36 2245.56C1304.19 2336.08 1350.83 2388.2 1353.57 2390.95L1372.77 2371.74C1370.03 2369 1304.19 2294.93 1216.41 2171.49C1183.49 2053.53 1136.86 1908.14 1068.28 1762.75C1057.31 1584.45 1060.05 1397.91 1087.48 1233.32C1142.35 1222.34 1271.28 1186.68 1249.33 1134.56C1227.39 1079.7 1134.12 1153.76 1095.71 1186.68C1120.4 1068.73 1161.55 964.484 1221.9 890.418C1276.76 824.581 1342.6 783.433 1424.9 769.717C1457.81 786.177 1712.93 904.134 1737.62 805.379C1767.77 733.987 1669.02 723.015 1586.72 725.758L1586.74 725.826ZM1452.33 20.8252C1460.56 26.3116 1466.04 29.0548 1468.79 31.798C1460.56 31.798 1444.1 31.798 1438.61 29.0548C1433.12 26.3116 1427.64 18.082 1427.64 12.5956C1430.38 12.5956 1438.61 15.3388 1452.33 20.8252ZM1180.75 155.242C1191.72 114.094 1235.61 81.1755 1312.42 61.9731C1339.86 53.7435 1361.8 51.0003 1383.75 51.0003C1413.92 51.0003 1438.61 59.2299 1452.33 72.9459C1466.04 89.4051 1468.79 111.351 1457.81 138.783C1438.61 193.646 1361.8 262.226 1219.16 278.686C1205.44 262.226 1164.29 207.362 1180.75 155.242ZM884.486 1466.49C947.579 1559.76 1002.44 1658.51 1049.08 1757.27C1051.82 1803.9 1054.56 1850.54 1060.05 1894.43C991.47 1765.5 928.377 1620.11 884.486 1466.49ZM1175.26 2089.19C1147.83 2048.05 1120.4 2004.16 1095.71 1957.52C1090.23 1916.37 1087.48 1875.23 1084.74 1834.08C1123.14 1921.86 1153.32 2009.64 1175.26 2089.19Z" fill="#EF3C32"/>
</svg>
