<svg width="715" height="908" viewBox="0 0 715 908" fill="none" xmlns="http://www.w3.org/2000/svg">
<path d="M862.86 25.4C839.45 27.35 815.01 26.84 793.72 36.36C758.11 52.29 741.6 91.96 738.79 129.91C681.13 164.49 623.26 198.79 563.92 230.43C575.25 212.68 587.73 195.7 601.29 179.6C610.58 170.14 618.13 159.12 623.58 147.03C625.97 139.86 627.22 132.36 627.29 124.8C628.1 97.87 621.23 71.28 607.49 48.11C599.88 64.86 590.65 80.83 579.95 95.8C573.11 104.47 566.89 113.61 561.35 123.17C545.15 154.33 551.53 191.44 558.28 225.67L558.25 233.47C553.16 236.16 548.15 238.98 543.04 241.63C509.3 259.11 474.68 274.6 440.52 291.19C443.22 272.21 454.9 255.36 461.97 237.3C471.86 208.86 473.54 178.2 466.79 148.86C463.68 132.74 459.1 116.94 453.09 101.66C445.09 122.31 434.74 141.97 422.27 160.27C409.77 178.59 403.01 200.22 402.85 222.4C404.47 246.65 419.38 268 433.8 288.02L438.06 292.37L437.98 292.41C404.37 309.29 372.3 329.08 342.14 351.56C332.64 358.46 323.26 365.57 313.94 372.77C308.36 354.53 306.55 335.34 308.61 316.38C309.86 305.28 312.43 294.33 313.45 283.21C316.49 245.09 301.81 207.69 273.64 181.83C261.66 215.56 253.93 250.66 250.61 286.3C248.92 296.15 249.94 306.28 253.56 315.59C255.89 319.95 258.73 324 262.04 327.67L302.77 376.76L309.43 376.3C267.14 409.07 227.55 445.19 191.07 484.31C185.29 452.14 179.51 419.97 173.73 387.8C172.51 378.78 170.11 369.95 166.59 361.55C160.35 350.19 152.13 340.03 142.31 331.57C130.7 320.27 119.08 308.97 107.47 297.67C113.6 321.13 116.38 345.35 115.72 369.6C115.25 375.9 114.31 382.17 113.99 388.49C113.69 410.65 120.53 432.33 133.52 450.3C146.51 468.27 164.93 481.57 186.07 488.24L190.47 484.98C164.24 513.21 140.13 543.35 118.34 575.14C115.32 565.87 114.32 556.04 112.05 546.53C104.24 515.91 83.07 490.41 54.41 477.09C36.6 468.79 16.37 465.19 0.0299988 454.48C19.17 470.5 18.53 498.54 26.71 521.57C33.5 538.85 45.22 553.74 60.42 564.39C75.62 575.04 93.62 580.98 112.18 581.45L114.65 580.74C96.47 607.83 80.32 636.22 66.33 665.68C30.74 739.28 12.06 819.91 11.67 901.67C11.71 909.14 23.35 909.66 23.31 902.15C22.63 778.85 69.67 661.61 141.36 562.88L141.38 562.95C164.36 579.83 192.68 587.78 221.09 585.34C232.07 583.23 242.74 579.73 252.83 574.91C275.45 564.99 297.37 553.53 318.41 540.59C308.27 541.98 297.94 540.34 288.72 535.88C275.58 532.45 261.98 531.17 248.43 532.08C214.77 533.35 181.51 539.84 149.84 551.33C159.85 538.1 170.26 525.23 181.08 512.71C207.29 482.77 235.44 454.57 265.35 428.32L265.44 428.69C286.21 448.11 313.35 459.27 341.78 460.07C352.96 459.24 364 456.99 374.6 453.37C398.32 446.12 421.51 437.26 444.02 426.84C433.8 427.05 423.75 424.24 415.13 418.75C402.5 413.83 389.15 410.99 375.61 410.35C342.79 407.81 309.78 410.26 277.69 417.59C295.65 402.17 313.94 387.14 332.83 372.9C362.11 350.03 393.18 329.56 425.74 311.68C427.19 310.92 428.66 310.23 430.11 309.48C440.92 332.01 457 354.44 481.85 360.51C498.83 362.73 516.05 362.3 532.89 359.23C546.31 358.25 559.79 359.04 573 361.58C567.72 357.1 563.06 351.92 559.16 346.19C551.2 334.48 546.24 320.27 534.59 311.85C523.43 305.28 510.69 301.87 497.74 301.97C482 300.77 466.22 299.92 450.45 299.25C475.97 286.89 501.96 275.49 527.29 262.78C562.88 244.93 597.77 225.78 632.34 206.07C642.08 212.61 650.56 220.86 657.39 230.39C664.84 239.7 672.28 249.01 679.73 258.32C684.12 264.66 689.79 270.01 696.38 274.02C708.36 278.22 721.29 278.86 733.63 275.88C748.04 274.34 762.58 274.63 776.92 276.74C764.17 264.51 759.75 245.89 748.67 232.12C737.17 219.22 721.93 210.23 705.08 206.42C682.3 200.3 658.4 199.61 635.3 204.41C672.84 182.95 710 160.79 747.07 138.55C767.74 141.18 788.73 139.67 808.81 134.11C840.56 127.01 873.57 116.77 894.98 93.25C909.42 76.52 918.2 55.64 920.06 33.62C920.2 22.17 922.21 10.82 926.01 0.0200195C911.53 17.73 886.31 23.47 862.9 25.42L862.86 25.4Z" fill="#EF3C32"/>
</svg>
