<svg width="220" height="189" viewBox="0 0 220 189" fill="none" xmlns="http://www.w3.org/2000/svg">
<path d="M199.7 86.437C195.653 89.1424 193.831 91.6659 191.576 97.785C190.914 99.5866 189.609 101.079 187.913 101.971C180.979 105.402 173.88 108.485 166.639 111.205C170.134 103.204 172.296 92.6238 167.407 85.2837C165.509 82.4351 162.608 78.6905 162.608 78.6905C162.608 78.6905 159.503 82.6518 157.695 85.2759C154.821 89.9146 153.944 95.5227 155.261 100.821C156.266 105.489 159.973 109.265 163.491 112.432C160.506 113.655 156.326 115.376 153.419 116.779C141.519 122.492 131.023 130.77 122.679 141.025C122.37 141.406 122.063 141.789 121.763 142.176C123.01 135.215 123.253 128.109 122.484 121.079C127.385 122.354 132.581 121.795 137.1 119.504C144.4 116.278 147.816 105.344 147.816 105.344C147.816 105.344 135.248 100.479 129.611 104.726C126.006 107.443 123.508 114.337 122.175 118.594C121.955 117.464 121.552 115.929 121.074 114.238L121.498 114.106C121.149 112.417 121.392 110.658 122.185 109.127C124.062 104.268 125.273 99.1744 125.786 93.9881C126.23 91.0389 126.646 88.2503 127.223 85.8236C127.624 84.138 128.112 82.4757 128.683 80.8385C129.599 84.2832 131.927 87.1782 135.09 88.8018C145.085 95.0873 147.88 95.1957 147.88 95.1957C147.216 90.7719 146.15 86.4177 144.692 82.1893C142.759 76.8927 136.579 72.9314 131.649 74.3131C133.42 71.3097 135.646 68.6004 138.246 66.2821C142.558 62.2762 147.07 58.4929 151.764 54.9458C151.745 57.535 153.149 62.6323 164.627 62.2472C171.958 62.2317 179.268 61.4635 186.445 59.956C186.445 59.956 175.266 43.1179 170.142 41.3936C159.713 37.8832 154.683 46.4619 152.823 50.9554C147.375 54.6342 142.242 58.7658 137.48 63.3058C138.213 61.1771 138.603 58.9438 138.637 56.6913C139.094 46.4387 124.069 46.6206 123.647 46.6283C123.967 46.638 126.266 47.116 125.608 58.9361C124.978 70.2531 132.093 67.7277 133.649 67.0445C129.071 72.1767 125.938 78.4408 124.579 85.1908C123.977 87.7297 123.549 90.5725 123.097 93.5837C122.613 98.5049 121.481 103.339 119.728 107.96C119.612 108.206 119.537 108.436 119.444 108.674C118.414 105.946 117.716 103.101 117.367 100.204C121.394 94.2107 123.363 87.8865 119.361 79.2459C117.544 75.5942 115.461 72.0818 113.127 68.7378C113.127 68.7378 103.611 81.0592 104.097 88.3084C104.249 91.2208 105.341 94.0075 107.21 96.2426C109.077 98.4778 111.619 100.045 114.451 100.705C116.233 105.175 117.685 109.772 118.796 114.455C118.846 114.706 118.893 114.882 118.9 114.908H118.904C119.249 116.314 119.552 117.64 119.78 118.76C109.914 111.5 94.1138 112.883 94.1138 112.883C94.1138 112.883 98.9743 122.977 106.223 124.568C111.151 125.377 116.2 124.245 120.318 121.41C121.116 129.524 121.309 138.966 118.248 146.565C115.888 152.427 113.075 155.365 111.029 159.8C110.954 159.992 110.915 160.195 110.913 160.402C97.113 142.565 85.9571 122.819 77.7907 101.777C78.0627 89.4656 80.111 77.2604 83.874 65.5409C84.4276 69.3726 85.5501 74.0731 87.8357 76.2986C90.7577 78.8898 94.353 80.5947 98.2028 81.214C98.2028 81.214 98.33 83.6852 99.0495 71.6464C99.578 62.8104 90.8831 60.5307 86.2136 59.9385C87.5753 57.0261 89.3035 54.2994 91.3557 51.8262C93.8553 52.5132 104.303 54.4658 113.035 42.3574L123.03 28.4995C123.03 28.4995 104.98 24.9562 97.6048 29.1478C91.1088 32.8401 88.7422 44.8673 90.0615 49.982C88.0633 52.2829 86.3486 54.82 84.956 57.5331C85.3514 54.967 84.8191 52.3449 83.4555 50.1387C81.3319 48.0739 78.7069 46.6032 75.8407 45.8736C75.8407 45.8736 76.132 44.248 73.6342 52.0352C71.6129 58.3401 79.9567 60.5849 83.2086 61.2099C78.0395 73.1829 76.3711 87.8865 75.8388 96.5155C68.9088 77.183 64.9008 56.9196 63.9461 36.397C69.8654 27.6751 73.9023 19.0384 72.5483 12.2633C71.1712 5.39917 61.51 0 61.51 0C61.51 0 56.9389 4.33675 56.6862 22.3804C56.3988 26.7694 57.855 31.0926 60.7347 34.4076C61.0124 42.4232 61.7589 50.4155 62.9701 58.3439C61.051 55.4179 58.5359 52.9312 55.5926 51.0483C44.5659 43.2205 34.0194 59.8224 33.4775 60.6933C33.7147 60.3449 35.8981 58.073 48.6915 67.3735C62.4127 77.3475 63.6529 63.7025 63.6529 63.7025C63.705 63.6193 63.7493 63.5341 63.7879 63.4451C68.3494 88.3742 77.1349 112.334 89.7625 134.286C82.5721 129.315 69.8886 121.584 56.9119 118.594C57.7528 117.402 59.3228 115.213 62.2816 111.157C69.4797 101.284 57.0913 88.2193 57.0913 88.2193L49.1216 102.05C44.3441 110.34 47.7734 115.118 51.2876 117.619C46.5004 116.986 41.6303 117.431 37.036 118.921C35.0976 114.184 29.6855 105.011 17.8449 109.39C2.48617 115.072 0 114.598 0 114.598C0 114.598 5.58568 128.76 14.8418 130.122C24.5415 131.55 30.5959 129.04 37.2424 122.205C47.1736 118.354 59.5331 121.741 70.1682 126.672C67.3503 127.155 64.7349 128.454 62.6422 130.406C60.5495 132.359 59.0682 134.881 58.3797 137.665C54.715 149.803 54.0265 153.462 54.0265 153.462C54.0265 153.462 69.4025 152.808 73.7789 143.399C76.1763 138.968 76.564 133.719 74.8455 128.982C81.4881 132.489 87.8183 136.56 93.7685 141.153L93.7917 141.122C103.059 156.589 114.269 170.798 127.15 183.396L137.831 189C128.866 180.715 120.434 171.874 112.58 162.525C115.685 156.442 119.139 150.546 122.92 144.862C131.62 137.307 147.523 137.75 154.64 141.315C160.048 145.197 162.82 151.599 169.38 151.726C175.81 151.85 184.15 141.603 184.15 141.603C182.038 139.898 179.687 138.519 177.172 137.509C168.113 133.816 164.488 133.067 157.101 137.412C155.74 138.197 154.106 138.358 152.619 137.851C144.682 135.068 136.003 135.299 128.224 138.497C135.337 130.745 143.812 124.374 153.224 119.705C156.903 117.876 160.681 116.268 164.49 114.731C165.162 120.76 168.921 126 174.406 128.551C180.904 131.819 188.623 131.045 195.349 128.986C196.22 128.719 196.216 127.653 195.846 127.03C190.718 118.385 176.358 114.329 166.485 113.479C173.459 110.739 185.305 106.137 191.956 102.65C195.642 100.719 204.51 104.922 210.021 101.957C217.458 97.9572 220.002 85.483 220.002 85.483C220.002 85.483 205.866 82.3112 199.7 86.4332V86.437Z" fill="#EF3C32"/>
</svg>
