<svg width="292" height="38" viewBox="0 0 292 38" fill="none" xmlns="http://www.w3.org/2000/svg">
<path d="M286.991 0C274.321 0 267.905 8.9636 262.75 16.1654C257.435 23.5964 253.812 28.1478 246.703 28.1478C239.594 28.1478 235.973 23.5938 230.658 16.1654C225.503 8.96103 219.088 0 206.42 0C193.752 0 187.334 8.9636 182.181 16.1654C176.866 23.5964 173.243 28.1478 166.136 28.1478C159.03 28.1478 155.407 23.5938 150.092 16.1654C144.936 8.9636 138.524 0 125.851 0C113.177 0 106.767 8.96618 101.615 16.1654C96.2995 23.5964 92.6793 28.1478 85.5699 28.1478C78.4604 28.1478 74.8376 23.5938 69.5226 16.1654C64.3699 8.9636 57.9573 0 45.2866 0C32.6159 0 26.2032 8.96618 21.0506 16.1654C15.7356 23.5964 12.1154 28.1478 5.01118 28.1478C2.24494 28.1478 0 30.3552 0 33.0752C0 35.7952 2.23971 38 5.01118 38C17.6819 38 24.0945 29.039 29.2472 21.8346C34.5622 14.4062 38.1798 9.85223 45.2866 9.85223C52.3934 9.85223 56.0188 14.4087 61.3313 21.8398C66.4865 29.039 72.8991 38 85.5699 38C98.2406 38 104.653 29.039 109.806 21.8346C115.121 14.4062 118.741 9.85223 125.851 9.85223C132.96 9.85223 136.583 14.4087 141.895 21.8398C147.048 29.039 153.46 38 166.131 38C178.802 38 185.214 29.039 190.372 21.8346C195.685 14.4062 199.305 9.85223 206.417 9.85223C213.529 9.85223 217.147 14.4087 222.462 21.8398C227.617 29.0364 234.03 37.9974 246.7 37.9974C259.371 37.9974 265.792 29.0364 270.942 21.8346C276.262 14.4036 279.882 9.84708 286.989 9.84708C289.755 9.84708 292 7.64482 292 4.91968C292 2.20227 289.755 -0.00257492 286.991 -0.00257492V0Z" fill="black"/>
</svg>
